# xmcd
#
# Track frame offsets:
#	150
#	12708
#	24176
#	40658
#	52648
#	67234
#	82204
#	94345
#	108075
#	121404
#	135219
#	158448
#
# Disc length: 2353 seconds
#
# Revision: 0
# Processed by: cddbd v1.4PL0 Copyright (c) Steve Scherf et al.
# Submitted via: EasyCDDAExtractor 4.5.0.2
#
DISCID=8d092f0c
DTITLE=String 'Em Up - Tuesday Night Tonic
DYEAR=2001
DGENRE=Bluegrass
TTITLE0=Hotter Than Mojave In my Heart
TTITLE1=I'll Be On That Good Road Someday
TTITLE2=Dirty Rotten Lowdown Blues
TTITLE3=Back In the Saddle
TTITLE4=Still The Night
TTITLE5=The Blue in Bluegrass Music
TTITLE6=Hello, Trouble
TTITLE7=Jesus, Why
TTITLE8=Southbound Train
TTITLE9=Folsom Prison Blues
TTITLE10=Glendale Train
TTITLE11=Rivers of Texas
EXTD=
EXTT0=
EXTT1=
EXTT2=
EXTT3=
EXTT4=
EXTT5=
EXTT6=
EXTT7=
EXTT8=
EXTT9=
EXTT10=
EXTT11=
PLAYORDER=
